<?xml version="1.0" encoding="UTF-8"?>
<svg width="40px" height="32px" viewBox="0 0 40 32" version="1.1" xmlns="http://www.w3.org/2000/svg" xmlns:xlink="http://www.w3.org/1999/xlink">
    <title>Wyn Logo</title>
    <g id="Wyn-Logo" stroke="none" stroke-width="1" fill="none" fill-rule="evenodd">
        <g id="wyn-logo" fill="#FFFFFF" fill-rule="nonzero">
            <path d="M39.8655692,23.3028146 C39.9399121,23.3028146 40,23.3645497 40,23.440702 L40,24.1397501 C40,24.2159024 39.9399121,24.2774527 39.8655692,24.2774527 L38.7159604,24.2774527 L35.4452321,24.2774527 C35.3725131,24.2774527 35.3133275,24.2170114 35.3133275,24.1423378 L35.3133275,23.3028146 L35.3133275,19.10908 C35.3133275,18.6991146 35.2357366,18.3945056 35.0805547,18.195068 C34.8533757,17.8817717 34.5708004,17.7252159 34.2330092,17.7252159 C33.8475807,17.7252159 33.535593,17.8647668 33.2948807,18.1407263 L33.3024594,18.1608734 C33.0514617,18.4627099 32.9258727,18.9582541 32.9258727,19.6473212 L32.9258727,24.1397501 C32.9258727,24.2159024 32.8656044,24.2774527 32.7912615,24.2774527 L29.6576706,24.2774527 C29.5833277,24.2774527 29.5232398,24.2159024 29.5232398,24.1397501 L29.5232398,15.34287 C29.5232398,15.2667178 29.5833277,15.2049827 29.6576706,15.2049827 L32.5611953,15.2049827 C32.6335534,15.2049827 32.6923781,15.2648694 32.6923781,15.4121834 L32.6923781,16.1090135 C32.6923781,16.2293415 32.8340267,16.2886737 32.9179332,16.2042039 C33.3320522,15.7870299 33.7156762,15.4922172 34.0688051,15.3203201 C34.5074645,15.106835 35.0486161,15 35.6928013,15 C36.6424781,15 37.3835617,15.2890829 37.9164129,15.8670637 C38.4494445,16.4452295 38.7159604,17.3492603 38.7159604,18.579526 L38.7159604,22.3984141 C38.7159604,23.3617772 39.1113132,23.3028146 39.5988729,23.3028146 L39.8655692,23.3028146 Z M27.6864821,15.2047793 C27.7608251,15.2047793 27.8209129,15.2663296 27.8209129,15.3424819 L27.8209129,28.727351 C27.8209129,30.6971438 26.4877925,31.640175 25.0898927,31.9521775 C24.7309895,32.0323961 24.4976754,32.0523583 24.5411624,31.6786208 C24.5411624,31.6786208 24.6517746,30.8128509 24.6517746,29.5807369 L24.6517746,23.2192504 C24.6517746,23.0392206 24.5189678,23.1148183 24.3921157,23.2395824 C24.004161,23.6208982 23.5653212,23.9996263 23.2318606,24.1619119 C22.7932012,24.3755819 22.2518692,24.482232 21.607684,24.482232 C21.6038947,24.482232 21.6002858,24.4820472 21.5963161,24.4820472 C21.5930681,24.4820472 21.5898201,24.482232 21.5865721,24.482232 L21.5865721,24.4818623 C20.6471805,24.4776111 19.9129538,24.1888979 19.3840724,23.6151683 C18.8512212,23.0371874 18.5845249,22.1329717 18.5845249,20.9028909 L18.5845249,15.3424819 C18.5845249,15.2663296 18.6447932,15.2047793 18.7191362,15.2047793 L21.8734781,15.2047793 C21.947821,15.2047793 22.0080893,15.2663296 22.0080893,15.3424819 L22.0080893,20.202364 C22.0080893,21.1548218 22.1932249,21.7572009 23.0676566,21.7572009 C24.2037321,21.7572009 24.4182801,20.8450373 24.4182801,19.8349108 L24.4182801,15.3424819 C24.4182801,15.2663296 24.4785484,15.2047793 24.5527109,15.2047793 L27.6864821,15.2047793 Z M16.6742904,15.2047793 C16.7486334,15.2047793 16.8089017,15.2663296 16.8089017,15.3424819 L16.8089017,20.2236201 C16.8089017,22.8965275 15.1405163,24.5380524 12.6099694,24.5380524 C10.8703086,24.5380524 9.60016312,23.8685779 8.96770684,23.1168515 C8.25585518,23.7066619 7.47020193,24.5380524 5.49325726,24.5380524 C2.56753794,24.5380524 1.34051861,22.9238832 1.34051861,21.4503739 L1.34051861,17.0204193 C1.25913836,16.2535365 0.812539416,16.1794174 0.272290024,16.1794174 L0.131002358,16.1794174 C0.058644306,16.1794174 0,16.1193458 0,16.0452268 L0,15.3391548 C0,15.2648509 0.058644306,15.2047793 0.131002358,15.2047793 L1.34051861,15.2047793 L4.62676508,15.2047793 L4.7756314,15.2047793 C4.84997433,15.2047793 4.91024263,15.2663296 4.91024263,15.3424819 L4.91024263,20.1345293 C4.91024263,20.9941996 5.0002842,21.766073 6.08204609,21.766073 C7.00140837,21.766073 7.28993835,21.0995559 7.28993835,20.1345293 L7.28993835,15.3424819 C7.28993835,15.2663296 7.35020665,15.2047793 7.42436915,15.2047793 L10.7250511,15.2047793 C10.7992136,15.2047793 10.8594819,15.2663296 10.8594819,15.3424819 L10.8594819,20.1345293 C10.8594819,20.9941996 10.9497039,21.766073 12.0314658,21.766073 C12.9508281,21.766073 13.2391776,21.0995559 13.2391776,20.1345293 L13.2391776,15.3424819 C13.2391776,15.2663296 13.2994459,15.2047793 13.3736084,15.2047793 L16.6742904,15.2047793 Z" id="Combined-Shape"></path>
            <g id="Group" transform="translate(13.000000, 0.000000)">
                <path d="M7.14767568,6.28306306 C8.91344144,6.28306306 10.344973,7.71459459 10.344973,9.48036036 C10.344973,11.2461261 8.91344144,12.6776577 7.14767568,12.6776577 C5.38172973,12.6776577 3.9501982,11.2461261 3.9501982,9.48036036 C3.9501982,7.71459459 5.38172973,6.28306306 7.14767568,6.28306306 Z M7.14772973,6.65448649 C6.39277477,6.65448649 5.68304505,6.94854054 5.14953153,7.48241441 C4.61655856,8.01520721 4.32304505,8.72475676 4.32304505,9.48043243 C4.32304505,10.2359279 4.61655856,10.9454775 5.14953153,11.4784505 C5.68322523,12.0121441 6.39295495,12.3061982 7.14772973,12.3061982 C7.90232432,12.3061982 8.61205405,12.0121441 9.14574775,11.4784505 C9.67854054,10.9454775 9.97205405,10.2359279 9.97205405,9.48043243 C9.97205405,8.72475676 9.67854054,8.01520721 9.14574775,7.48241441 C8.61205405,6.94854054 7.9025045,6.65448649 7.14772973,6.65448649 Z M9.69151351,9.48043243 C9.69151351,8.80097297 9.42682883,8.16205405 8.94646847,7.68151351 C8.46592793,7.20115315 7.82700901,6.93646847 7.14772973,6.93646847 C6.46790991,6.93646847 5.82917117,7.20115315 5.34881081,7.68151351 C4.86827027,8.16205405 4.60358559,8.80097297 4.60358559,9.48043243 C4.60358559,10.1598919 4.86827027,10.7986306 5.34881081,11.2791712 C5.82917117,11.7597117 6.46790991,12.0242162 7.14772973,12.0242162 C7.82700901,12.0242162 8.46592793,11.7597117 8.94646847,11.2791712 C9.42682883,10.7986306 9.69151351,10.1598919 9.69151351,9.48043243 Z" id="Combined-Shape"></path>
                <path d="M14.1221622,12.6777838 C15.8879279,12.6777838 17.3194595,11.2462523 17.3194595,9.48048649 C17.3194595,7.71454054 15.8879279,6.28300901 14.1221622,6.28300901 C12.3563964,6.28300901 10.9248649,7.71454054 10.9248649,9.48048649 C10.9248649,11.2462523 12.3563964,12.6777838 14.1221622,12.6777838 L14.1221622,12.6777838 Z M16.1201622,7.48241441 C16.652955,8.01520721 16.9466486,8.72475676 16.9466486,9.48043243 C16.9466486,10.2359279 16.652955,10.9454775 16.1201622,11.4784505 C15.5866486,12.0121441 14.8767387,12.3061982 14.1221441,12.3061982 C13.3673694,12.3061982 12.6576396,12.0121441 12.1241261,11.4784505 C11.5902523,10.9447568 11.2961982,10.2352072 11.2961982,9.48043243 C11.2961982,8.72565766 11.5902523,8.01610811 12.1241261,7.48241441 C12.6576396,6.94854054 13.3673694,6.65448649 14.1221441,6.65448649 C14.8770991,6.65448649 15.5866486,6.94854054 16.1201622,7.48241441 Z M15.9208829,11.2791712 C16.9127748,10.2872793 16.9127748,8.67340541 15.9208829,7.68151351 C15.4403423,7.20097297 14.8016036,6.93646847 14.1221441,6.93646847 C13.4426847,6.93646847 12.8037658,7.20097297 12.3234054,7.68151351 C11.3313333,8.67340541 11.3313333,10.2872793 12.3234054,11.2791712 C12.8037658,11.7597117 13.4426847,12.0242162 14.1221441,12.0242162 C14.8016036,12.0242162 15.4403423,11.7597117 15.9208829,11.2791712 Z" id="Combined-Shape"></path>
                <path d="M17.7110991,0.180072072 C19.4768649,0.180072072 20.9083964,1.6116036 20.9083964,3.37754955 C20.9083964,5.14331532 19.4768649,6.57484685 17.7110991,6.57484685 C15.9451532,6.57484685 14.5136216,5.14331532 14.5136216,3.37754955 C14.5136216,1.6116036 15.9451532,0.180072072 17.7110991,0.180072072 Z M17.7111532,0.551603604 C16.9561982,0.551603604 16.2464685,0.845657658 15.712955,1.37935135 C14.610973,2.48097297 14.610973,4.27376577 15.712955,5.37556757 C16.2464685,5.90926126 16.9561982,6.20331532 17.7111532,6.20331532 C18.4659279,6.20331532 19.1752973,5.90926126 19.7091712,5.37556757 C20.2428649,4.84187387 20.5367387,4.13214414 20.5367387,3.37736937 C20.5367387,2.62259459 20.2428649,1.91304505 19.7091712,1.37935135 C19.1752973,0.845657658 18.4659279,0.551603604 17.7111532,0.551603604 Z M20.2549369,3.37736937 C20.2549369,2.69790991 19.9902523,2.05917117 19.5098919,1.57863063 C19.0293514,1.09809009 18.3906126,0.833585586 17.7111532,0.833585586 C17.0315135,0.833585586 16.3927748,1.09809009 15.9122342,1.57863063 C14.9203423,2.57052252 14.9203423,4.1843964 15.9122342,5.17610811 C16.3925946,5.65664865 17.0315135,5.92133333 17.7111532,5.92133333 C18.3906126,5.92133333 19.0293514,5.65664865 19.5098919,5.17610811 C19.9902523,4.69556757 20.2549369,4.05682883 20.2549369,3.37736937 Z" id="Combined-Shape"></path>
                <path d="M3.55864865,6.57488288 C5.32459459,6.57488288 6.75594595,5.14335135 6.75594595,3.37758559 C6.75594595,1.61163964 5.32459459,0.180108108 3.55864865,0.180108108 C1.79288288,0.180108108 0.361351351,1.61163964 0.361351351,3.37758559 C0.361351351,5.14335135 1.79288288,6.57488288 3.55864865,6.57488288 L3.55864865,6.57488288 Z M5.55673874,1.37935135 C6.65854054,2.48097297 6.65854054,4.27376577 5.55673874,5.37556757 C5.02322523,5.90926126 4.3134955,6.20331532 3.55872072,6.20331532 C2.80394595,6.20331532 2.0943964,5.90926126 1.56052252,5.37556757 C1.02682883,4.84187387 0.732954955,4.13232432 0.732954955,3.37736937 C0.732954955,2.62259459 1.02682883,1.91304505 1.56052252,1.37935135 C2.0943964,0.845657658 2.80376577,0.551603604 3.55872072,0.551603604 C4.3134955,0.551603604 5.02322523,0.845657658 5.55673874,1.37935135 Z M5.35763964,5.17610811 C6.34917117,4.1843964 6.34917117,2.57052252 5.35763964,1.57863063 C4.87691892,1.09809009 4.23818018,0.833585586 3.55872072,0.833585586 C2.87926126,0.833585586 2.24052252,1.09809009 1.7598018,1.57863063 C1.27926126,2.05917117 1.01475676,2.69790991 1.01475676,3.37736937 C1.01475676,4.05682883 1.27926126,4.69556757 1.7598018,5.17610811 C2.24034234,5.65664865 2.87926126,5.92133333 3.55872072,5.92133333 C4.23818018,5.92133333 4.8770991,5.65664865 5.35763964,5.17610811 Z" id="Combined-Shape"></path>
                <path d="M10.634973,0.180072072 C12.4007387,0.180072072 13.8322703,1.6116036 13.8322703,3.37754955 C13.8322703,5.14331532 12.4007387,6.57484685 10.634973,6.57484685 C8.86902703,6.57484685 7.4374955,5.14331532 7.4374955,3.37754955 C7.4374955,1.6116036 8.86902703,0.180072072 10.634973,0.180072072 Z M10.6349369,0.551603604 C9.88016216,0.551603604 9.17043243,0.845657658 8.63673874,1.37935135 C7.53493694,2.48097297 7.53493694,4.27376577 8.63673874,5.37556757 C9.17043243,5.90926126 9.88016216,6.20331532 10.6349369,6.20331532 C11.3897117,6.20331532 12.0992613,5.90926126 12.6327748,5.37556757 C13.1666486,4.84187387 13.4605225,4.13232432 13.4605225,3.37736937 C13.4605225,2.62259459 13.1666486,1.91304505 12.6327748,1.37935135 C12.0992613,0.845657658 11.3897117,0.551603604 10.6349369,0.551603604 Z M13.1787207,3.37736937 C13.1787207,2.69790991 12.9142162,2.05917117 12.4336757,1.57863063 C11.9531351,1.09809009 11.3142162,0.833585586 10.6349369,0.833585586 C9.95547748,0.833585586 9.31655856,1.09809009 8.83601802,1.57863063 C7.84412613,2.57052252 7.84412613,4.1843964 8.83601802,5.17610811 C9.31637838,5.65664865 9.9552973,5.92133333 10.6349369,5.92133333 C11.3143964,5.92133333 11.9531351,5.65664865 12.4336757,5.17610811 C12.9142162,4.69556757 13.1787207,4.05682883 13.1787207,3.37736937 Z" id="Combined-Shape"></path>
            </g>
        </g>
    </g>
</svg>